<?xml version="1.0" ?><svg id="Layer_1" style="enable-background:new 0 0 512 512;" version="1.1" viewBox="0 0 512 512" xml:space="preserve" xmlns="http://www.w3.org/2000/svg" xmlns:xlink="http://www.w3.org/1999/xlink"><g><g><circle cx="256" cy="230.6" id="XMLID_6_" r="56.8"/><path d="M290.9,297.2L256,348.6l-34.9-51.4c-50.3,7.9-88.8,51.5-88.8,104.1h247.5    C379.8,348.8,341.3,305.2,290.9,297.2z" id="XMLID_5_"/></g><g><circle cx="382.2" cy="167.4" id="XMLID_4_" r="56.8"/><circle cx="129.8" cy="167.4" id="XMLID_3_" r="56.8"/></g><g><path d="M291.2,287.3l1.3,0.2c26.8,4.2,51.4,17.9,69.3,38.6c3.3,3.8,6.3,7.8,9.1,12H506    c0-52.6-38.5-96.2-88.8-104.1l-34.9,51.4L347.3,234c-8.9,1.4-17.5,3.9-25.5,7.5C318.6,260.8,307.1,277.3,291.2,287.3z" id="XMLID_2_"/></g><g><path d="M150.3,326.1c17.8-20.7,42.4-34.4,69.3-38.6l1.3-0.2c-16-10-27.5-26.5-30.6-45.8c-8-3.5-16.6-6-25.5-7.5    l-34.9,51.4L94.8,234C44.5,241.9,6,285.5,6,338.1h135.2C144,333.9,147,329.9,150.3,326.1z" id="XMLID_1_"/></g></g></svg>